# xmcd
#
# Track frame offsets:
#	187
#	21267
#	33337
#	48117
#	71362
#	94825
#	111085
#	136265
#	149987
#	168327
#	186980
#	239145
#	261907
#
# Disc length: 3752 seconds
#
# Revision: 1
# Processed by: cddbd v1.5.1PL0 Copyright (c) Steve Scherf et al.
# Submitted via: CDex 1.50Beta5
#
DISCID=c00ea60d
DTITLE=デューク・エリントン楽団 - デューク・エリントン・ベスト・セレクション
DYEAR=1994
DGENRE=Jazz
TTITLE0=A列車で行こう
TTITLE1=アイ・ガット・イット・バッド
TTITLE2=パーディド
TTITLE3=ムード・インディゴ
TTITLE4=黒と茶の幻想
TTITLE5=ソリチュード
TTITLE6=ムーチ
TTITLE7=ソフィスティケイテッド・レディー
TTITLE8=クリオール・ラブ・コール
TTITLE9=イスファハーン
TTITLE10=アドリブ・オン・ニッポン
TTITLE11=ロータス・ブロッサム
TTITLE12=デイ・ドリーム
EXTD=
EXTT0=
EXTT1=
EXTT2=
EXTT3=
EXTT4=
EXTT5=
EXTT6=
EXTT7=
EXTT8=
EXTT9=
EXTT10=
EXTT11=
EXTT12=
PLAYORDER=
